<svg xmlns="http://www.w3.org/2000/svg" width="1200" height="630" viewBox="0 0 1200 630">
<rect width="1200" height="630" fill="#151020"/>
<g font-family="Helvetica, Arial, sans-serif"><text x="80" y="100" fill="#b7ebd8" font-size="38" font-weight="700">duet.</text><text x="80" y="205" fill="#d9ccE9" font-size="19" letter-spacing="3">THE SHARED CO-PARENTING CALENDAR</text><g fill="#ffffff" font-size="76" font-weight="700"><text x="75" y="303">Two homes.</text><text x="75" y="396">One shared</text><text x="75" y="489" fill="#c8a3ed">calendar.</text></g><text x="80" y="569" fill="#d9cce9" font-size="22">Parenting days · Plans · Shared expenses</text></g>
<g transform="translate(820 140)"><rect width="285" height="365" rx="28" fill="#f8f7f4"/><g fill="#211b2d" font-family="Helvetica, Arial, sans-serif" font-size="22" font-weight="600"><text x="27" y="51">The week ahead</text></g><g fill="#b7ebd8"><rect x="25" y="82" width="66" height="66" rx="13"/><rect x="110" y="82" width="66" height="66" rx="13"/><rect x="25" y="252" width="66" height="66" rx="13"/><rect x="110" y="252" width="66" height="66" rx="13"/></g><g fill="#cfb7e6"><rect x="195" y="82" width="66" height="66" rx="13"/><rect x="25" y="167" width="66" height="66" rx="13"/><rect x="110" y="167" width="66" height="66" rx="13"/><rect x="195" y="167" width="66" height="66" rx="13"/><rect x="195" y="252" width="66" height="66" rx="13"/></g></g>
</svg>
